<?xml version="1.0" encoding="utf-8"?>
<!-- Generator: Adobe Illustrator 20.1.0, SVG Export Plug-In . SVG Version: 6.00 Build 0)  -->
<svg version="1.1" id="Layer_1" xmlns="http://www.w3.org/2000/svg" xmlns:xlink="http://www.w3.org/1999/xlink" x="0px" y="0px"
	 viewBox="0 0 47 54.7" style="enable-background:new 0 0 47 54.7;" xml:space="preserve">
<style type="text/css">
	.st0{fill:#6B7685;}
</style>
<g>
	<rect x="1" y="1" class="st0" width="45.1" height="5.9"/>
	<rect x="1" y="12.7" class="st0" width="45.1" height="5.9"/>
	<rect x="1" y="24.5" class="st0" width="45.1" height="5.9"/>
	<g>
		<path class="st0" d="M3.6,42L7,51.1h0l3.4-9.1H13v11.8h-2v-4l0.2-5.1l0,0l-3.5,9.1H6.4l-3.5-9.1l0,0L3,49.8v4h-2V42H3.6z"/>
		<path class="st0" d="M22.7,48.5h-5.1v3.7h6v1.6h-7.9V42h7.9v1.6h-5.9v3.3h5.1V48.5z"/>
		<path class="st0" d="M34.4,53.8h-2l-5.2-8.6l0,0v8.6h-2V42h2l5.2,8.6l0,0V42h2V53.8z"/>
		<path class="st0" d="M45.9,42v7.9c0,1.3-0.4,2.3-1.3,3c-0.9,0.7-2,1-3.3,1c-1.3,0-2.4-0.4-3.3-1.1c-0.8-0.7-1.3-1.7-1.3-3V42h2
			v7.9c0,0.8,0.2,1.4,0.7,1.9c0.5,0.4,1.1,0.6,1.9,0.6c0.8,0,1.5-0.2,1.9-0.6s0.7-1,0.7-1.9V42H45.9z"/>
	</g>
</g>
</svg>
